<?xml version="1.0" encoding="UTF-8" standalone="no"?>
<!-- Created with Inkscape (http://www.inkscape.org/) -->

<svg
   xmlns:dc="http://purl.org/dc/elements/1.1/"
   xmlns:cc="http://creativecommons.org/ns#"
   xmlns:rdf="http://www.w3.org/1999/02/22-rdf-syntax-ns#"
   xmlns:svg="http://www.w3.org/2000/svg"
   xmlns="http://www.w3.org/2000/svg"
   xmlns:sodipodi="http://sodipodi.sourceforge.net/DTD/sodipodi-0.dtd"
   xmlns:inkscape="http://www.inkscape.org/namespaces/inkscape"
   width="1000"
   height="131.87389"
   id="svg6122"
   version="1.1"
   inkscape:version="0.48.5 r10040"
   sodipodi:docname="A.svg">
  <defs
     id="defs6124">
    <clipPath
       clipPathUnits="userSpaceOnUse"
       id="clipPath6833">
      <path
         inkscape:connector-curvature="0"
         d="M 0,0 612,0 612,792 0,792 0,0 z"
         id="path6835" />
    </clipPath>
  </defs>
  <sodipodi:namedview
     id="base"
     pagecolor="#ffffff"
     bordercolor="#666666"
     borderopacity="1.0"
     inkscape:pageopacity="0.0"
     inkscape:pageshadow="2"
     inkscape:zoom="0.28779297"
     inkscape:cx="850.6702"
     inkscape:cy="-259.12057"
     inkscape:document-units="px"
     inkscape:current-layer="layer1"
     showgrid="false"
     fit-margin-left="0.5"
     fit-margin-bottom="0.5"
     fit-margin-top="0.5"
     fit-margin-right="0.5"
     inkscape:window-width="1051"
     inkscape:window-height="1039"
     inkscape:window-x="862"
     inkscape:window-y="-21"
     inkscape:window-maximized="0" />
  <metadata
     id="metadata6127">
    <rdf:RDF>
      <cc:Work
         rdf:about="">
        <dc:format>image/svg+xml</dc:format>
        <dc:type
           rdf:resource="http://purl.org/dc/dcmitype/StillImage" />
        <dc:title></dc:title>
      </cc:Work>
    </rdf:RDF>
  </metadata>
  <g
     inkscape:label="Layer 1"
     inkscape:groupmode="layer"
     id="layer1"
     transform="translate(-143.97997,-397.10979)">
    <g
       id="g6829"
       transform="matrix(9.9011864,0,0,-9.9011864,-2346.8621,2044.2055)">
      <g
         id="g6831"
         clip-path="url(#clipPath6833)">
        <path
           d="m 326.22356,153.33587 2.855,0 0,12.717 -2.855,0 0,-12.717 z m 13.002,4.683 -4.867,8.033 -2.835,0 0,-12.716 2.727,0 0,8.034 5.031,-8.034 2.671,0 0,12.716 -2.727,0 0,-8.033 z m 7.638,-2.225 0,2.861 4.663,0 0,2.272 -4.663,0 0,2.667 5.455,0 0,2.458 -8.313,0 0,-12.716 8.512,0 0,2.458 -5.654,0 z m -26.644,1.711 -2.365,8.547 -2.209,0 -2.456,-8.547 -2.092,8.547 -2.785,0 3.322,-12.716 2.534,0 2.451,7.963 2.491,-7.963 2.437,0 3.418,12.716 -2.728,0 -2.018,-8.547 z m -68.599,-4.169 2.909,0 0,4.996 4.591,0 0,2.458 -4.646,0 0,2.804 5.437,0 0,2.458 -8.291,0 0,-12.716 z m 14.755,12.967 c -4.021,0 -5.71,-3.005 -5.71,-6.608 0,-3.606 1.689,-6.61 5.71,-6.61 4.023,0 5.712,3.004 5.712,6.61 0,3.603 -1.689,6.608 -5.712,6.608 m 0,-10.761 c -1.848,0 -2.765,1.624 -2.765,4.153 0,2.525 0.917,4.151 2.765,4.151 1.849,0 2.766,-1.626 2.766,-4.151 0,-2.529 -0.917,-4.153 -2.766,-4.153 m 42.473,-2.065 c -0.366,0 -1.059,0.233 -1.477,0.483 -0.36,0.21 -0.942,0.565 -1.813,1.29 0.662,0.791 1.289,2.058 1.289,3.096 0,0.144 -0.12,0.233 -0.342,0.258 -0.731,0.079 -1.256,0.093 -1.567,0.093 -0.107,0 -0.21,-0.028 -0.21,-0.112 l 0.156,-0.095 c 0.196,0 0.472,-0.039 0.64,-0.205 0.197,-0.176 0.25,-0.424 0.25,-0.621 0,-0.799 -0.334,-1.66 -0.647,-2.095 -0.335,0.289 -1.945,1.768 -2.388,2.264 -1.203,1.321 -2.12,2.269 -2.12,3.397 0,1.17 0.863,1.601 1.531,1.601 0.653,0 1.105,-0.275 1.38,-0.581 0.307,-0.341 0.392,-0.767 0.392,-1.107 0,-0.195 0.013,-0.247 0.085,-0.247 0.066,0 0.112,0.025 0.144,0.222 0.039,0.196 0.118,1.177 0.118,1.59 0,0.157 -0.006,0.247 -0.196,0.334 -0.352,0.169 -0.927,0.3 -1.585,0.3 -2.012,0 -3,-1.373 -2.993,-2.407 0.006,-0.589 0.136,-1.125 0.652,-1.833 -0.9,-0.489 -2.065,-1.594 -2.065,-3.125 0,-1.14 0.864,-2.892 3.406,-2.892 1.865,0 2.82,0.957 3.186,1.302 1.282,-1.002 1.676,-1.12 2.904,-1.12 l 1.145,0 c 0.203,0 0.309,0.039 0.309,0.107 0,0.089 -0.065,0.103 -0.184,0.103 m -6.907,0.368 c -1.412,0 -2.565,1.111 -2.565,2.746 0,1.046 0.477,1.706 1.041,2.092 0.294,-0.43 1.13,-1.366 1.471,-1.73 0.341,-0.368 1.614,-1.605 2.36,-2.233 -0.359,-0.359 -1.195,-0.875 -2.307,-0.875 m -12.843,12.207 -3.159,0 0,-12.716 3.159,0 c 4.324,0 6.98,1.841 6.98,6.359 0,4.517 -2.656,6.357 -6.98,6.357 m 0.316,-10.258 -0.621,0 0,7.8 0.621,0 c 2.619,0 3.772,-0.987 3.772,-3.899 0,-2.914 -1.153,-3.901 -3.772,-3.901 m -10.42,10.509 c -4.022,0 -5.712,-3.005 -5.712,-6.608 0,-3.606 1.69,-6.61 5.712,-6.61 4.023,0 5.711,3.004 5.711,6.61 0,3.603 -1.688,6.608 -5.711,6.608 m 0,-10.761 c -1.848,0 -2.764,1.624 -2.764,4.153 0,2.525 0.916,4.151 2.764,4.151 1.849,0 2.766,-1.626 2.766,-4.151 0,-2.529 -0.917,-4.153 -2.766,-4.153"
           style="fill:#231f20;fill-opacity:1;fill-rule:nonzero;stroke:none"
           id="path6837"
           inkscape:connector-curvature="0" />
      </g>
    </g>
  </g>
</svg>
